<?xml version="1.0" standalone="no"?>
<!DOCTYPE svg PUBLIC "-//W3C//DTD SVG 20010904//EN"
 "http://www.w3.org/TR/2001/REC-SVG-20010904/DTD/svg10.dtd">
<svg version="1.0" xmlns="http://www.w3.org/2000/svg"
 width="207.000000pt" height="255.000000pt" viewBox="0 0 207.000000 255.000000"
 preserveAspectRatio="xMidYMid meet">

<g transform="translate(0.000000,255.000000) scale(0.100000,-0.100000)"
fill="#000000" stroke="none">
<path d="M890 2146 c-273 -61 -476 -215 -605 -459 -249 -472 -18 -1058 487
-1236 268 -94 573 -51 803 114 76 54 189 174 233 248 90 149 132 299 132 467
0 237 -81 438 -243 607 -178 186 -385 274 -636 272 -64 -1 -141 -7 -171 -13z
m380 -42 c260 -67 483 -263 583 -514 59 -149 72 -362 32 -520 -38 -150 -152
-334 -264 -428 -48 -41 -188 -132 -202 -132 -14 0 -110 202 -119 250 -14 72 8
168 54 244 20 33 36 68 36 77 0 27 36 82 69 107 17 12 32 34 35 52 3 16 9 45
12 63 4 20 25 49 56 80 36 35 48 53 43 67 -3 11 3 37 15 60 19 38 20 44 6 65
-10 15 -13 35 -9 58 4 30 1 37 -25 56 -23 16 -32 31 -34 59 -3 33 -8 39 -45
57 -26 12 -43 27 -45 40 -3 17 -10 20 -58 20 -39 1 -65 7 -90 23 -51 32 -101
29 -144 -9 -19 -16 -38 -39 -41 -49 -6 -18 -33 -24 -135 -33 -19 -2 -45 -8
-57 -15 -30 -17 -63 -15 -63 3 0 40 -118 5 -139 -41 -5 -13 -23 -30 -39 -38
-17 -9 -34 -28 -40 -44 -5 -16 -33 -51 -62 -78 -68 -64 -137 -156 -145 -195
-5 -21 -2 -36 8 -47 10 -11 15 -34 14 -62 -2 -56 21 -104 51 -108 26 -4 26 -2
8 -38 -15 -27 -9 -55 13 -69 6 -3 7 -21 4 -40 -4 -25 1 -45 20 -78 16 -26 28
-67 33 -106 5 -44 14 -71 30 -90 20 -24 29 -26 96 -26 40 0 79 -4 86 -8 25
-17 3 -198 -28 -231 -12 -12 -127 44 -216 105 -436 302 -481 941 -92 1304 132
124 279 197 453 226 73 12 260 3 335 -17z m47 -238 c26 -22 34 -24 72 -15 51
11 65 5 57 -27 -6 -21 -3 -24 22 -24 44 0 72 -26 72 -66 0 -28 6 -38 30 -52
19 -11 30 -25 30 -40 0 -28 -35 -99 -52 -105 -7 -2 -10 -8 -5 -12 4 -5 20 4
36 19 34 32 52 19 27 -19 -9 -13 -16 -40 -16 -60 0 -26 -7 -41 -27 -58 -59
-49 -73 -70 -79 -119 -7 -49 -45 -111 -59 -96 -4 4 -1 29 6 57 10 39 10 56 1
76 -7 14 -12 39 -12 55 0 19 -7 33 -20 40 -11 6 -20 17 -20 25 0 9 -11 25 -25
37 -14 12 -25 28 -25 36 0 11 -8 13 -33 8 -31 -6 -34 -4 -46 29 -7 21 -24 41
-41 50 -22 11 -28 21 -27 42 2 24 -2 28 -23 27 -14 -1 -31 7 -39 19 -11 16
-22 18 -57 14 -42 -4 -44 -4 -38 20 6 22 5 23 -20 12 -22 -10 -29 -10 -43 3
-23 23 -7 41 31 34 20 -4 42 -1 62 10 31 17 33 17 89 -15 66 -37 81 -36 30 3
-34 26 -35 28 -20 56 33 63 109 80 162 36z m-464 -96 c9 -11 29 -20 46 -20 16
0 34 -7 41 -15 7 -8 19 -15 28 -15 8 0 24 -8 35 -17 12 -11 35 -18 61 -18 33
0 43 -4 51 -22 6 -15 15 -21 27 -18 12 5 15 1 11 -14 -4 -16 3 -23 31 -35 22
-9 41 -26 48 -43 20 -48 38 -64 59 -52 14 7 19 6 19 -4 0 -8 9 -17 20 -20 11
-3 27 -21 35 -40 8 -19 21 -37 28 -40 20 -7 28 -108 14 -168 -6 -27 -14 -49
-17 -49 -11 0 -40 82 -40 115 0 22 -7 41 -21 53 -16 15 -19 27 -14 53 3 19 2
39 -2 45 -10 13 -90 54 -106 54 -7 0 -26 14 -42 30 -16 17 -35 30 -42 30 -9 0
-11 5 -7 12 5 7 -5 3 -21 -10 -30 -24 -46 -22 -25 3 16 20 7 29 -17 17 -25
-13 -39 -6 -63 34 -20 32 -50 46 -50 24 0 -5 -7 -10 -15 -10 -9 0 -15 10 -15
26 0 14 -4 23 -9 19 -6 -3 -52 -3 -103 1 l-93 6 37 39 c21 22 41 39 46 39 5 0
15 7 22 15 16 20 22 19 43 -5z m47 -142 c15 -18 22 -21 36 -12 15 9 26 2 68
-42 56 -58 98 -76 113 -49 9 15 13 13 41 -14 18 -18 41 -31 56 -31 13 0 28 -5
31 -11 4 -5 18 -15 32 -20 22 -8 25 -14 20 -44 -4 -25 0 -41 14 -59 31 -39 25
-56 -20 -56 -23 0 -56 -9 -76 -21 -48 -29 -134 -23 -170 11 -22 20 -73 145
-63 155 2 2 21 0 43 -5 52 -12 65 -12 65 0 0 6 -11 10 -25 10 -41 0 -130 38
-168 73 -20 17 -52 59 -73 91 l-37 59 48 -6 c31 -5 53 -14 65 -29z m-130 12
c11 -6 31 -30 45 -54 26 -44 106 -126 124 -126 5 0 21 -36 36 -79 14 -44 35
-91 46 -105 25 -31 90 -50 146 -42 38 5 43 3 43 -14 0 -11 5 -20 10 -20 6 0
10 9 10 19 0 24 36 51 67 51 30 0 44 -29 44 -96 1 -67 -16 -95 -84 -138 -52
-32 -80 -25 -70 17 5 17 3 19 -6 11 -7 -7 -11 -22 -9 -35 4 -30 44 -37 87 -15
29 15 31 15 42 -5 9 -17 8 -38 -6 -96 -27 -114 -19 -172 44 -298 28 -58 49
-110 46 -115 -10 -16 -132 -49 -227 -62 -92 -12 -221 -3 -311 23 -33 9 -38 14
-33 32 39 136 44 175 26 221 -8 21 -6 26 6 26 8 0 50 18 92 39 42 21 94 44
114 51 40 12 68 44 86 99 14 41 14 41 4 41 -5 0 -15 -18 -22 -40 -16 -49 -42
-78 -78 -86 -15 -4 -61 -23 -102 -44 -80 -40 -155 -60 -224 -60 -61 0 -82 23
-90 102 -5 38 -17 80 -32 105 -37 64 -27 126 12 76 13 -16 13 -16 8 -1 -3 9
-21 29 -40 43 -19 14 -34 33 -34 41 0 8 22 43 49 79 46 59 74 135 57 152 -3 4
-6 -5 -6 -18 0 -23 -34 -109 -43 -109 -6 0 -37 95 -37 114 0 10 10 17 28 17
l27 2 -29 4 c-27 4 -28 6 -21 51 11 73 44 151 83 194 49 55 84 68 122 48z
m-201 -147 c-6 -16 -17 -59 -23 -98 -11 -62 -10 -76 6 -122 20 -59 22 -79 8
-88 -32 -20 -74 51 -63 106 4 21 0 35 -12 49 -20 23 -15 58 17 104 50 72 87
99 67 49z m811 -369 c0 -29 -39 -124 -51 -124 -19 0 -19 41 0 66 11 14 23 41
27 60 7 38 24 36 24 -2z"/>
<path d="M763 1359 c-18 -5 -35 -15 -39 -21 -5 -8 -2 -9 12 -3 67 28 93 29
140 7 25 -12 42 -17 39 -11 -10 16 -70 39 -97 38 -13 0 -37 -5 -55 -10z"/>
</g>
</svg>
